<svg xmlns="http://www.w3.org/2000/svg" viewBox="0 0 512 512">
  <defs>
    <linearGradient id="bg" x1="80" x2="432" y1="64" y2="448" gradientUnits="userSpaceOnUse">
      <stop stop-color="#fff9fb"/>
      <stop offset="0.5" stop-color="#fff0f6"/>
      <stop offset="1" stop-color="#ffd8e7"/>
    </linearGradient>
    <filter id="shadow" x="-20%" y="-20%" width="140%" height="140%">
      <feDropShadow dx="0" dy="16" stdDeviation="18" flood-color="#502f3d" flood-opacity="0.18"/>
    </filter>
  </defs>
  <rect width="512" height="512" rx="124" fill="url(#bg)"/>
  <g fill="#232124" opacity="0.13">
    <circle cx="108" cy="108" r="9"/>
    <circle cx="172" cy="108" r="9"/>
    <circle cx="236" cy="108" r="9"/>
    <circle cx="300" cy="108" r="9"/>
    <circle cx="364" cy="108" r="9"/>
    <circle cx="108" cy="172" r="9"/>
    <circle cx="172" cy="172" r="9"/>
    <circle cx="236" cy="172" r="9"/>
    <circle cx="300" cy="172" r="9"/>
    <circle cx="364" cy="172" r="9"/>
  </g>
  <g filter="url(#shadow)">
    <rect x="112" y="178" width="288" height="196" rx="54" fill="#fffafc" fill-opacity="0.68"/>
    <rect x="112" y="178" width="288" height="196" rx="54" fill="none" stroke="#fffafc" stroke-opacity="0.75" stroke-width="5"/>
    <path d="M178 248h156M178 298h104" stroke="#232124" stroke-width="24" stroke-linecap="round"/>
    <circle cx="345" cy="294" r="18" fill="#f48caf"/>
  </g>
</svg>
